# xmcd CD database file
#
# Track frame offsets:
#	150
#	16170
#	34672
#	50692
#
# Disc length: 919 seconds
#
# Revision: 4
# Processed by: cddbd v1.5.1PL0 Copyright (c) Steve Scherf et al.
# Submitted via: CDex 1.51
#
DISCID=28039504
DTITLE=大塚愛 - SMILY - ビー玉
DYEAR=2005
DGENRE=Japanese Pop
TTITLE0=SMILY
TTITLE1=ビー玉
TTITLE2=SMILY (Instrumental)
TTITLE3=ビー玉 (Instrumental)
EXTD=YEAR: 2005
EXTT0=
EXTT1=
EXTT2=
EXTT3=
PLAYORDER=
